<svg width="18" height="16" viewBox="0 0 18 16" fill="none" xmlns="http://www.w3.org/2000/svg">
<g id="fi-rr-copyright" clip-path="url(#clip0_889_475)">
<path id="Vector" d="M9.01578 0.101562C7.40375 0.101563 5.82793 0.552905 4.48758 1.39851C3.14723 2.24412 2.10256 3.44602 1.48566 4.85222C0.868766 6.25841 0.707358 7.80575 1.02185 9.29856C1.33634 10.7914 2.1126 12.1626 3.25248 13.2389C4.39235 14.3151 5.84464 15.0481 7.42568 15.345C9.00673 15.6419 10.6455 15.4895 12.1349 14.9071C13.6242 14.3246 14.8971 13.3382 15.7927 12.0727C16.6883 10.8071 17.1663 9.31927 17.1663 7.79721C17.164 5.75688 16.3045 3.80074 14.7765 2.358C13.2485 0.915268 11.1767 0.103769 9.01578 0.101563V0.101562ZM9.01578 14.2103C7.67242 14.2103 6.35924 13.8341 5.24228 13.1295C4.12532 12.4248 3.25476 11.4232 2.74068 10.2514C2.2266 9.07955 2.09209 7.7901 2.35417 6.54609C2.61624 5.30208 3.26313 4.15939 4.21303 3.26251C5.16292 2.36563 6.37316 1.75484 7.6907 1.5074C9.00824 1.25995 10.3739 1.38695 11.615 1.87234C12.8561 2.35772 13.9169 3.1797 14.6632 4.23432C15.4095 5.28894 15.8079 6.52883 15.8079 7.79721C15.8059 9.49749 15.0897 11.1276 13.8163 12.3299C12.543 13.5321 10.8165 14.2084 9.01578 14.2103Z" fill="#FCF9F4"/>
<path id="Vector_2" d="M11.4175 5.52959C11.5456 5.6464 11.7172 5.71104 11.8953 5.70958C12.0734 5.70812 12.2437 5.64068 12.3697 5.52177C12.4956 5.40287 12.567 5.24202 12.5686 5.07388C12.5701 4.90573 12.5017 4.74373 12.378 4.62278C11.713 3.99501 10.8658 3.56751 9.94357 3.39433C9.02131 3.22115 8.06537 3.31008 7.19663 3.64987C6.32789 3.98965 5.58537 4.56503 5.06296 5.30326C4.54055 6.04148 4.26172 6.90939 4.26172 7.79724C4.26172 8.68508 4.54055 9.55299 5.06296 10.2912C5.58537 11.0294 6.32789 11.6048 7.19663 11.9446C8.06537 12.2844 9.02131 12.3733 9.94357 12.2001C10.8658 12.027 11.713 11.5995 12.378 10.9717C12.5017 10.8507 12.5701 10.6887 12.5686 10.5206C12.567 10.3525 12.4956 10.1916 12.3697 10.0727C12.2437 9.9538 12.0734 9.88635 11.8953 9.88489C11.7172 9.88343 11.5456 9.94807 11.4175 10.0649C10.9426 10.5132 10.3374 10.8186 9.6787 10.9422C9.01995 11.0659 8.33716 11.0023 7.71667 10.7596C7.09617 10.5169 6.56583 10.1059 6.19271 9.5786C5.81958 9.05131 5.62043 8.43139 5.62043 7.79724C5.62043 7.16308 5.81958 6.54317 6.19271 6.01588C6.56583 5.48859 7.09617 5.0776 7.71667 4.83488C8.33716 4.59216 9.01995 4.52861 9.6787 4.65227C10.3374 4.77592 10.9426 5.08123 11.4175 5.52959Z" fill="#FCF9F4"/>
</g>
<defs>
<clipPath id="clip0_889_475">
<rect width="16.3011" height="15.3913" fill="white" transform="translate(0.865234 0.101562)"/>
</clipPath>
</defs>
</svg>
