<svg width="16" height="15" viewBox="0 0 16 15" fill="none" xmlns="http://www.w3.org/2000/svg">
<g id="fi-sr-star" clip-path="url(#clip0_548_60)">
<path id="Vector" d="M0.884521 7.75015L3.25785 9.37516L2.35652 11.992C2.21086 12.3979 2.20902 12.837 2.35126 13.244C2.4935 13.6509 2.77222 14.0038 3.14585 14.2502C3.51309 14.5044 3.95812 14.6406 4.41462 14.6385C4.87113 14.6363 5.31468 14.4959 5.67919 14.2383L7.99985 12.637L10.3212 14.2364C10.6878 14.4892 11.1304 14.6265 11.5854 14.6286C12.0405 14.6306 12.4845 14.4974 12.8537 14.248C13.2229 13.9986 13.4982 13.6458 13.64 13.2405C13.7819 12.8351 13.783 12.398 13.6432 11.992L12.7419 9.37516L15.1152 7.75015C15.4813 7.49922 15.7534 7.14625 15.8928 6.74165C16.0321 6.33705 16.0315 5.90152 15.891 5.49727C15.7505 5.09302 15.4773 4.74073 15.1105 4.49072C14.7437 4.24071 14.302 4.10576 13.8485 4.10515H10.9332L10.0485 1.52015C9.9094 1.11325 9.63603 0.758288 9.26783 0.506445C8.89964 0.254602 8.45563 0.118896 7.99985 0.118896C7.54408 0.118896 7.10007 0.254602 6.73188 0.506445C6.36368 0.758288 6.09031 1.11325 5.95119 1.52015L5.06652 4.10515H2.15385C1.70035 4.10576 1.25865 4.24071 0.891841 4.49072C0.525033 4.74073 0.251881 5.09302 0.111402 5.49727C-0.029078 5.90152 -0.0296998 6.33705 0.109625 6.74165C0.24895 7.14625 0.521095 7.49922 0.887187 7.75015H0.884521Z" fill="#6A4028"/>
</g>
<defs>
<clipPath id="clip0_548_60">
<rect width="16" height="15" fill="white"/>
</clipPath>
</defs>
</svg>
